<svg width="34" height="28" viewBox="0 0 34 28" fill="none" xmlns="http://www.w3.org/2000/svg">
<path d="M13.6024 27.905C13.2831 27.7561 0.760803 15.9814 0.468142 15.5609C0.131139 15.0615 -0.0373631 14.4132 0.00697948 13.7912C0.104533 12.6786 -0.0107576 12.8012 6.99537 6.20427C10.6758 2.74371 13.4694 0.185524 13.6468 0.106676C14.4627 -0.24376 15.4471 0.308177 15.5712 1.19303C15.6688 1.94647 15.7841 1.82381 9.8599 7.36947L4.31708 12.5647L18.7284 12.6085C33.1131 12.6523 33.1486 12.6523 33.3881 12.8363C33.8581 13.1779 34 13.4583 34 14.0102C34 14.5622 33.8581 14.8425 33.3881 15.1842C33.1486 15.3682 33.1131 15.3682 18.755 15.412L4.37029 15.4558L9.8599 20.6247C13.6024 24.1378 15.3939 25.89 15.4825 26.1003C15.7397 26.6873 15.5269 27.3794 14.9593 27.7911C14.6578 28.0102 13.9572 28.0715 13.6024 27.905Z" fill="#FF7F00"/>
</svg>
